<svg width="167" height="26" viewBox="0 0 167 26" fill="none" xmlns="http://www.w3.org/2000/svg">
<path d="M34.5414 5.38208C35.9886 5.38208 37.1057 5.70272 37.9339 6.38695C38.3238 6.7055 38.633 7.10696 38.8374 7.56023C39.0419 8.01349 39.1361 8.50639 39.1129 9.00074C39.1352 9.73085 38.9174 10.4489 38.491 11.0506C38.0507 11.6012 37.453 12.0135 36.7726 12.2358C37.6355 12.3241 38.428 12.7383 38.9794 13.389C39.5308 14.0396 39.7968 14.8747 39.7201 15.7142C39.7201 17.1628 39.2043 18.2077 38.1903 18.8919C37.3199 19.4645 36.0986 19.7508 34.5266 19.7508H27.7769V5.38208H34.5414ZM30.0465 11.4743H33.9372C34.9717 11.4743 35.7056 11.291 36.1713 10.9504C36.637 10.6097 36.8551 10.0256 36.8551 9.26126C36.8551 8.49688 36.6282 8.01591 36.1713 7.69241C35.7145 7.36891 34.9717 7.19141 33.9784 7.19141H30.0465V11.4743ZM30.0465 17.9272H34.226C34.9979 17.9595 35.7661 17.8071 36.4631 17.4834C36.7876 17.3021 37.0541 17.0371 37.233 16.7178C37.412 16.3984 37.4965 16.0372 37.4771 15.6741C37.4771 14.8295 37.2059 14.2083 36.6901 13.8247C36.1743 13.441 35.3667 13.2521 34.2879 13.2521H30.0465V17.9272Z" fill="#F3F3F3"/>
<path d="M44.3181 9.34142V19.7336H42.1311V9.34142H44.3181ZM44.3181 7.51205H42.1311V5.38208H44.324L44.3181 7.51205Z" fill="#F3F3F3"/>
<path d="M87.0387 19.7336V9.34143H89.2287V11.606C89.6266 10.4379 90.8262 9.34143 92.7656 9.34143H93.4996V11.4685H92.4149C90.39 11.4685 89.2139 12.2444 89.2139 13.4124V19.7336H87.0387Z" fill="#F3F3F3"/>
<path d="M83.6402 10.2062C82.8955 9.44275 81.7362 9.06104 80.1622 9.06104C78.8359 9.06104 77.7601 9.28147 76.9731 9.76244C76.517 10.0314 76.1269 10.394 75.8301 10.8247C75.5333 11.2554 75.3369 11.7439 75.2547 12.256L77.4299 12.4392C77.4773 12.1709 77.5854 11.9161 77.7464 11.6933C77.9075 11.4705 78.1176 11.2853 78.3613 11.1509C78.8704 10.889 79.4424 10.7644 80.0178 10.7902C81.633 10.7902 82.4397 11.5136 82.4377 12.9603V13.1005H79.11C77.5714 13.1005 76.3659 13.613 75.5141 14.6579C75.0669 15.1904 74.8241 15.8574 74.8273 16.5446C74.8273 18.3081 76.4072 19.7367 78.3643 19.7367C78.5559 19.7367 79.1071 19.7166 79.4106 19.6765C79.5199 19.6619 79.6282 19.6409 79.7349 19.6136C80.1839 19.5405 80.6217 19.4126 81.0376 19.2328C81.5691 18.9666 82.0401 18.5996 82.423 18.1535V19.7338H84.6188V13.1005C84.6129 11.8352 84.2799 10.8589 83.6402 10.2062ZM82.4171 15.4395C82.364 16.1609 82.0339 17.0656 81.4238 17.5637C80.7635 18.1077 79.9736 18.1048 79.0422 18.1048C78.56 18.126 78.0851 17.9844 77.6982 17.704C77.5358 17.5934 77.4038 17.4458 77.3138 17.2741C77.2239 17.1024 77.1788 16.9118 77.1824 16.7192C77.1824 15.5168 78.0666 14.8497 79.8115 14.7324H82.4171V15.4395Z" fill="#F3F3F3"/>
<path d="M69.74 5.38208L64.1045 17.3947L58.4719 5.38208H55.937V19.7365H58.1329V9.34142L63.008 19.7365H65.2009L70.0878 9.31852V19.7365H72.2837V5.38208H69.74Z" fill="#F3F3F3"/>
<path d="M99.5654 17.9245V11.4687H102V9.34162H99.5654V6.44727H97.3754V9.34162H95.3947V11.4687H97.3754V17.4807C97.3754 18.8578 98.1771 19.7281 99.6862 19.7281H102V17.9245H99.5654Z" fill="#F3F3F3"/>
<path d="M50.9558 17.9245V11.4687H53.3904V9.34162H50.9558V6.44727H48.7688V9.34162H46.7851V11.4687H48.7688V17.4807C48.7688 18.8578 49.5676 19.7281 51.0796 19.7281H53.3904V17.9245H50.9558Z" fill="#F3F3F3"/>
<path d="M13.9297 18.0475H5.96861V18.7231H13.9297V18.0475Z" fill="#F3F3F3"/>
<path d="M7.96111 22.2502H1.98954V22.9259H7.96111V22.2502Z" fill="#F3F3F3"/>
<path d="M3.97319 18.0503H9.53674e-07V18.7259H3.97319V18.0503Z" fill="#F3F3F3"/>
<path d="M13.9297 16.0951H7.95817V16.7707H13.9297V16.0951Z" fill="#F3F3F3"/>
<path d="M5.96272 16.0951H1.99249V16.7707H5.96272V16.0951Z" fill="#F3F3F3"/>
<path d="M13.9297 7.36047H3.97613V8.03611H13.9297V7.36047Z" fill="#F3F3F3"/>
<path d="M5.96273 5.11304H1.98954V5.78867H5.96273V5.11304Z" fill="#F3F3F3"/>
<path d="M19.2086 11.6089V11.5917C19.9019 10.4157 20.2652 9.08351 20.2624 7.72834C20.2596 6.37317 19.8907 5.04245 19.1926 3.86913C18.4944 2.6958 17.4915 1.72096 16.284 1.04201C15.0766 0.363049 13.7068 0.00374727 12.3116 0H3.97613V0.967648H12.3352C13.4059 0.971767 14.4613 1.21541 15.4194 1.67969C16.3775 2.14396 17.2126 2.81638 17.86 3.64478C18.5074 4.47319 18.9496 5.43531 19.1523 6.45651C19.355 7.47771 19.3127 8.53055 19.0288 9.53334C19.2368 8.66592 19.2406 7.76411 19.0399 6.89508C18.8393 6.02604 18.4394 5.21218 17.8699 4.5141C17.3005 3.81602 16.5763 3.25171 15.7512 2.86321C14.9261 2.47471 14.0214 2.27202 13.1044 2.27025H5.96862V3.2379H13.1133C13.9139 3.23816 14.7032 3.42186 15.417 3.77405C16.1308 4.12625 16.749 4.63703 17.2214 5.26488C17.6938 5.89274 18.007 6.61997 18.1357 7.3875C18.2643 8.15503 18.2048 8.94122 17.9619 9.68221C18.1181 9.11051 18.1374 8.51167 18.0183 7.9316C17.8993 7.35153 17.6451 6.80564 17.2752 6.3358C16.9053 5.86595 16.4295 5.48463 15.8843 5.22107C15.3392 4.95751 14.7391 4.81872 14.1302 4.81534H7.94048V5.79157H14.1007C14.6239 5.79252 15.1377 5.92657 15.5909 6.1804C16.0441 6.43422 16.421 6.79894 16.684 7.23825C16.947 7.67756 17.0868 8.17612 17.0897 8.68428C17.0926 9.19243 16.9583 9.69245 16.7003 10.1345C15.81 9.81297 14.8678 9.64816 13.9179 9.64785H5.95978V10.6155H13.9179C15.5413 10.6157 17.1137 11.166 18.3641 12.1715C19.6145 13.177 20.4646 14.5747 20.7679 16.1236C20.4653 14.8443 19.7253 13.7023 18.6687 12.8839C17.612 12.0656 16.301 11.6191 14.9496 11.6175H3.97319V12.5766H14.9643C16.1579 12.5805 17.3102 13.001 18.2111 13.7615C19.112 14.522 19.7014 15.5717 19.8718 16.7191C19.7038 15.8302 19.2206 15.0266 18.5061 14.4477C17.7916 13.8688 16.891 13.5511 15.9605 13.5499H3.97908V14.5176H15.9576C16.7495 14.5176 17.5089 14.8231 18.0689 15.367C18.6288 15.9109 18.9434 16.6485 18.9434 17.4177C18.9434 18.1868 18.6288 18.9245 18.0689 19.4683C17.5089 20.0122 16.7495 20.3177 15.9576 20.3177H1.98954V21.2854H15.9605C16.891 21.2842 17.7916 20.9666 18.5061 20.3877C19.2206 19.8087 19.7038 19.0051 19.8718 18.1162C19.6991 19.2645 19.1067 20.3141 18.203 21.0731C17.2992 21.8322 16.1443 22.25 14.9496 22.2502H9.93886V23.2178H14.9496C16.2475 23.2161 17.5096 22.8043 18.5453 22.0446C19.5811 21.2849 20.3343 20.2186 20.6912 19.0066C20.3182 20.4748 19.4503 21.7798 18.2256 22.7136C17.0008 23.6474 15.4897 24.1565 13.9327 24.1597H3.98792V25.1274H13.9179C15.5373 25.1349 17.1205 24.6625 18.4562 23.7731C19.7918 22.8838 20.8163 21.6198 21.3929 20.15C21.9695 18.6802 22.0707 17.0745 21.6831 15.5473C21.2954 14.0201 20.4373 12.6442 19.2234 11.6032L19.2086 11.6089Z" fill="#F3F3F3"/>
<rect x="110" y="3.06372" width="57" height="19" rx="9.5" fill="#00F8F8"/>
<path d="M120.752 8.66372C121.336 8.66372 121.836 8.74772 122.252 8.91572C122.676 9.08372 123 9.32372 123.224 9.63572C123.456 9.94772 123.572 10.3237 123.572 10.7637C123.572 11.2357 123.44 11.6397 123.176 11.9757C122.912 12.3117 122.552 12.5317 122.096 12.6357C122.656 12.7317 123.096 12.9677 123.416 13.3437C123.736 13.7197 123.896 14.1917 123.896 14.7597C123.896 15.2397 123.772 15.6517 123.524 15.9957C123.276 16.3397 122.924 16.6037 122.468 16.7877C122.012 16.9717 121.468 17.0637 120.836 17.0637H117.104V8.66372H120.752ZM120.68 12.1557C121.128 12.1557 121.48 12.0557 121.736 11.8557C121.992 11.6477 122.12 11.3597 122.12 10.9917C122.12 10.6317 121.992 10.3557 121.736 10.1637C121.48 9.96372 121.128 9.86772 120.68 9.87572H118.52V12.1557H120.68ZM120.68 15.8517C121.232 15.8597 121.664 15.7557 121.976 15.5397C122.288 15.3157 122.444 14.9997 122.444 14.5917C122.444 14.2077 122.288 13.9077 121.976 13.6917C121.664 13.4677 121.232 13.3597 120.68 13.3677H118.52V15.8517H120.68ZM129.909 13.4157C129.893 13.0557 129.809 12.7517 129.657 12.5037C129.513 12.2477 129.309 12.0517 129.045 11.9157C128.781 11.7717 128.477 11.6997 128.133 11.6997C127.749 11.6997 127.413 11.7877 127.125 11.9637C126.845 12.1397 126.625 12.3877 126.465 12.7077C126.305 13.0197 126.225 13.3877 126.225 13.8117C126.225 14.2677 126.309 14.6637 126.477 14.9997C126.653 15.3357 126.893 15.5957 127.197 15.7797C127.509 15.9637 127.865 16.0557 128.265 16.0557C128.977 16.0557 129.577 15.8037 130.065 15.2997L130.797 16.0317C130.485 16.3757 130.105 16.6437 129.657 16.8357C129.209 17.0197 128.709 17.1117 128.157 17.1117C127.501 17.1117 126.929 16.9757 126.441 16.7037C125.953 16.4317 125.573 16.0557 125.301 15.5757C125.029 15.0877 124.893 14.5237 124.893 13.8837C124.893 13.2437 125.029 12.6837 125.301 12.2037C125.573 11.7157 125.953 11.3357 126.441 11.0637C126.929 10.7917 127.489 10.6517 128.121 10.6437C128.873 10.6437 129.477 10.7997 129.933 11.1117C130.389 11.4157 130.713 11.8477 130.905 12.4077C131.097 12.9677 131.165 13.6317 131.109 14.3997H126.009V13.4157H129.909ZM134.635 14.2197C134.187 14.2197 133.855 14.2877 133.639 14.4237C133.423 14.5597 133.315 14.7837 133.315 15.0957C133.315 15.3917 133.423 15.6277 133.639 15.8037C133.863 15.9797 134.167 16.0677 134.551 16.0677C134.895 16.0677 135.203 16.0077 135.475 15.8877C135.747 15.7677 135.963 15.6077 136.123 15.4077C136.283 15.1997 136.367 14.9677 136.375 14.7117L136.639 15.8757C136.439 16.2917 136.135 16.6037 135.727 16.8117C135.319 17.0197 134.831 17.1237 134.263 17.1237C133.807 17.1237 133.411 17.0357 133.075 16.8597C132.739 16.6837 132.479 16.4477 132.295 16.1517C132.111 15.8477 132.019 15.5117 132.019 15.1437C132.019 14.5677 132.227 14.1077 132.643 13.7637C133.067 13.4197 133.663 13.2437 134.431 13.2357H136.543V14.2197H134.635ZM136.363 13.0197C136.363 12.6037 136.235 12.2797 135.979 12.0477C135.723 11.8157 135.343 11.6997 134.839 11.6997C134.535 11.6997 134.223 11.7557 133.903 11.8677C133.591 11.9797 133.275 12.1437 132.955 12.3597L132.391 11.4717C132.687 11.2877 132.967 11.1357 133.231 11.0157C133.495 10.8957 133.775 10.8037 134.071 10.7397C134.375 10.6757 134.731 10.6437 135.139 10.6437C135.963 10.6437 136.595 10.8437 137.035 11.2437C137.483 11.6357 137.711 12.1797 137.719 12.8757L137.731 17.0637H136.375L136.363 13.0197ZM144.079 12.5157C143.855 12.2837 143.591 12.1037 143.287 11.9757C142.983 11.8477 142.639 11.7837 142.255 11.7837C141.887 11.7837 141.559 11.8717 141.271 12.0477C140.983 12.2237 140.759 12.4717 140.599 12.7917C140.439 13.1037 140.359 13.4677 140.359 13.8837C140.359 14.2997 140.439 14.6677 140.599 14.9877C140.759 15.2997 140.983 15.5477 141.271 15.7317C141.559 15.9077 141.887 15.9957 142.255 15.9957C142.655 15.9957 143.015 15.9317 143.335 15.8037C143.655 15.6677 143.923 15.4717 144.139 15.2157L144.907 15.9717C144.619 16.3317 144.243 16.6117 143.779 16.8117C143.323 17.0117 142.795 17.1117 142.195 17.1117C141.563 17.1117 141.003 16.9757 140.515 16.7037C140.035 16.4317 139.659 16.0557 139.387 15.5757C139.115 15.0877 138.979 14.5237 138.979 13.8837C138.979 13.2437 139.115 12.6837 139.387 12.2037C139.659 11.7157 140.035 11.3357 140.515 11.0637C141.003 10.7837 141.563 10.6437 142.195 10.6437C142.771 10.6437 143.279 10.7317 143.719 10.9077C144.167 11.0757 144.539 11.3157 144.835 11.6277L144.079 12.5157ZM148.83 10.6437C149.486 10.6437 150.062 10.7797 150.558 11.0517C151.062 11.3237 151.454 11.7037 151.734 12.1917C152.014 12.6717 152.154 13.2317 152.154 13.8717C152.154 14.5117 152.014 15.0757 151.734 15.5637C151.454 16.0517 151.062 16.4317 150.558 16.7037C150.062 16.9757 149.486 17.1117 148.83 17.1117C148.174 17.1117 147.594 16.9757 147.09 16.7037C146.586 16.4317 146.194 16.0517 145.914 15.5637C145.634 15.0757 145.494 14.5117 145.494 13.8717C145.494 13.2317 145.634 12.6717 145.914 12.1917C146.194 11.7037 146.586 11.3237 147.09 11.0517C147.594 10.7797 148.174 10.6437 148.83 10.6437ZM148.83 11.7597C148.446 11.7597 148.106 11.8517 147.81 12.0357C147.514 12.2117 147.282 12.4597 147.114 12.7797C146.954 13.0997 146.874 13.4677 146.874 13.8837C146.874 14.3077 146.954 14.6797 147.114 14.9997C147.282 15.3197 147.514 15.5717 147.81 15.7557C148.106 15.9317 148.446 16.0197 148.83 16.0197C149.214 16.0197 149.55 15.9317 149.838 15.7557C150.134 15.5717 150.362 15.3197 150.522 14.9997C150.69 14.6797 150.774 14.3077 150.774 13.8837C150.774 13.4677 150.69 13.0997 150.522 12.7797C150.362 12.4597 150.134 12.2117 149.838 12.0357C149.55 11.8517 149.214 11.7597 148.83 11.7597ZM158.322 13.4637C158.322 12.9677 158.186 12.5797 157.914 12.2997C157.642 12.0117 157.266 11.8677 156.786 11.8677C156.218 11.8757 155.77 12.0757 155.442 12.4677C155.122 12.8597 154.962 13.3477 154.962 13.9317H154.578C154.578 13.1397 154.69 12.5037 154.914 12.0237C155.138 11.5437 155.454 11.1957 155.862 10.9797C156.278 10.7557 156.766 10.6437 157.326 10.6437C157.822 10.6437 158.246 10.7437 158.598 10.9437C158.958 11.1437 159.23 11.4277 159.414 11.7957C159.606 12.1557 159.702 12.5917 159.702 13.1037V17.0637H158.322V13.4637ZM153.594 10.6917H154.974V17.0637H153.594V10.6917Z" fill="#1C1E1F"/>
</svg>
