<svg width="176" height="40" viewBox="0 0 176 40" fill="none" xmlns="http://www.w3.org/2000/svg">
  <rect x="109" y="4" width="63" height="32" rx="16" fill="#00F8F8"/>
  <path d="M5 9C5 6.79086 6.79086 5 9 5H11.2C13.4091 5 15.2 6.79086 15.2 9V9C15.2 11.2091 13.4091 13 11.2 13H5V9Z" fill="white"/>
  <path d="M5 16H14.5C18.6421 16 22 19.3579 22 23.5V23.5C22 27.6421 18.6421 31 14.5 31H5V16Z" fill="white"/>
  <path d="M0 12C0 10.8954 0.895431 10 2 10H7V14H2C0.895431 14 0 13.1046 0 12V12Z" fill="white"/>
  <path d="M0 24C0 22.8954 0.895431 22 2 22H7V26H2C0.895431 26 0 25.1046 0 24V24Z" fill="white"/>
  <path d="M2 17H7V29H2C0.895431 29 0 28.1046 0 27V19C0 17.8954 0.895431 17 2 17Z" fill="white"/>
  <text x="28" y="28" fill="white" font-family="Alexandria, Arial, sans-serif" font-size="19" font-weight="700">BitMart</text>
  <text x="120" y="25" fill="#000000" font-family="Alexandria, Arial, sans-serif" font-size="16" font-weight="700">Beacon</text>
</svg>