<svg width="197" height="26" viewBox="0 0 197 26" fill="none" xmlns="http://www.w3.org/2000/svg">
<path d="M34.5414 5.38208C35.9886 5.38208 37.1057 5.70272 37.9339 6.38695C38.3238 6.7055 38.633 7.10696 38.8374 7.56023C39.0419 8.01349 39.1361 8.50639 39.1129 9.00074C39.1352 9.73085 38.9174 10.4489 38.491 11.0506C38.0507 11.6012 37.453 12.0135 36.7726 12.2358C37.6355 12.3241 38.428 12.7383 38.9794 13.389C39.5308 14.0396 39.7968 14.8747 39.7201 15.7142C39.7201 17.1628 39.2043 18.2077 38.1903 18.8919C37.3199 19.4645 36.0986 19.7508 34.5266 19.7508H27.7769V5.38208H34.5414ZM30.0465 11.4743H33.9372C34.9717 11.4743 35.7056 11.291 36.1713 10.9504C36.637 10.6097 36.8551 10.0256 36.8551 9.26126C36.8551 8.49688 36.6282 8.01591 36.1713 7.69241C35.7145 7.36891 34.9717 7.19141 33.9784 7.19141H30.0465V11.4743ZM30.0465 17.9272H34.226C34.9979 17.9595 35.7661 17.8071 36.4631 17.4834C36.7876 17.3021 37.0541 17.0371 37.233 16.7178C37.412 16.3984 37.4965 16.0372 37.4771 15.6741C37.4771 14.8295 37.2059 14.2083 36.6901 13.8247C36.1743 13.441 35.3667 13.2521 34.2879 13.2521H30.0465V17.9272Z" fill="#F3F3F3"/>
<path d="M44.3181 9.34142V19.7336H42.1311V9.34142H44.3181ZM44.3181 7.51205H42.1311V5.38208H44.324L44.3181 7.51205Z" fill="#F3F3F3"/>
<path d="M87.0387 19.7336V9.34143H89.2287V11.606C89.6266 10.4379 90.8262 9.34143 92.7656 9.34143H93.4996V11.4685H92.4149C90.39 11.4685 89.2139 12.2444 89.2139 13.4124V19.7336H87.0387Z" fill="#F3F3F3"/>
<path d="M83.6402 10.2061C82.8955 9.44269 81.7362 9.06097 80.1622 9.06097C78.8359 9.06097 77.7601 9.28141 76.9731 9.76237C76.517 10.0314 76.1269 10.3939 75.8301 10.8246C75.5333 11.2553 75.3369 11.7438 75.2547 12.2559L77.4299 12.4392C77.4773 12.1708 77.5854 11.916 77.7464 11.6933C77.9075 11.4705 78.1176 11.2852 78.3613 11.1509C78.8704 10.8889 79.4424 10.7644 80.0178 10.7901C81.633 10.7901 82.4397 11.5135 82.4377 12.9602V13.1005H79.11C77.5714 13.1005 76.3659 13.6129 75.5141 14.6579C75.0669 15.1904 74.8241 15.8573 74.8273 16.5445C74.8273 18.308 76.4072 19.7366 78.3643 19.7366C78.5559 19.7366 79.1071 19.7166 79.4106 19.6765C79.5199 19.6618 79.6282 19.6408 79.7349 19.6135C80.1839 19.5405 80.6217 19.4125 81.0376 19.2327C81.5691 18.9665 82.0401 18.5995 82.423 18.1534V19.7337H84.6188V13.1005C84.6129 11.8351 84.2799 10.8589 83.6402 10.2061ZM82.4171 15.4394C82.364 16.1609 82.0339 17.0655 81.4238 17.5637C80.7635 18.1076 79.9736 18.1048 79.0422 18.1048C78.56 18.1259 78.0851 17.9843 77.6982 17.704C77.5358 17.5934 77.4038 17.4457 77.3138 17.274C77.2239 17.1023 77.1788 16.9118 77.1824 16.7191C77.1824 15.5167 78.0666 14.8497 79.8115 14.7323H82.4171V15.4394Z" fill="#F3F3F3"/>
<path d="M69.74 5.38208L64.1045 17.3947L58.4719 5.38208H55.937V19.7365H58.1329V9.34142L63.008 19.7365H65.2009L70.0878 9.31852V19.7365H72.2837V5.38208H69.74Z" fill="#F3F3F3"/>
<path d="M99.5654 17.9244V11.4687H102V9.34156H99.5654V6.4472H97.3754V9.34156H95.3947V11.4687H97.3754V17.4807C97.3754 18.8577 98.1771 19.728 99.6862 19.728H102V17.9244H99.5654Z" fill="#F3F3F3"/>
<path d="M50.9558 17.9244V11.4687H53.3904V9.34156H50.9558V6.4472H48.7688V9.34156H46.7851V11.4687H48.7688V17.4807C48.7688 18.8577 49.5676 19.728 51.0796 19.728H53.3904V17.9244H50.9558Z" fill="#F3F3F3"/>
<path d="M13.9297 18.0475H5.96861V18.7232H13.9297V18.0475Z" fill="#F3F3F3"/>
<path d="M7.96111 22.2502H1.98954V22.9259H7.96111V22.2502Z" fill="#F3F3F3"/>
<path d="M3.97319 18.0503H1.90735e-06V18.7259H3.97319V18.0503Z" fill="#F3F3F3"/>
<path d="M13.9297 16.0951H7.95817V16.7707H13.9297V16.0951Z" fill="#F3F3F3"/>
<path d="M5.96272 16.0951H1.99249V16.7707H5.96272V16.0951Z" fill="#F3F3F3"/>
<path d="M13.9297 7.36041H3.97613V8.03605H13.9297V7.36041Z" fill="#F3F3F3"/>
<path d="M5.96273 5.1131H1.98954V5.78873H5.96273V5.1131Z" fill="#F3F3F3"/>
<path d="M19.2086 11.6089V11.5917C19.9019 10.4157 20.2652 9.08351 20.2624 7.72834C20.2596 6.37317 19.8907 5.04245 19.1926 3.86913C18.4944 2.6958 17.4915 1.72096 16.284 1.04201C15.0766 0.363049 13.7068 0.00374727 12.3116 0H3.97614V0.967648H12.3352C13.4059 0.971767 14.4613 1.21541 15.4194 1.67969C16.3775 2.14396 17.2126 2.81638 17.86 3.64478C18.5074 4.47319 18.9496 5.43531 19.1523 6.45651C19.355 7.47771 19.3127 8.53055 19.0288 9.53334C19.2368 8.66592 19.2406 7.76411 19.0399 6.89508C18.8393 6.02604 18.4394 5.21218 17.8699 4.5141C17.3005 3.81602 16.5763 3.25171 15.7512 2.86321C14.9261 2.47471 14.0214 2.27202 13.1044 2.27025H5.96862V3.2379H13.1133C13.9139 3.23816 14.7032 3.42186 15.417 3.77405C16.1308 4.12625 16.749 4.63703 17.2214 5.26488C17.6938 5.89274 18.007 6.61997 18.1357 7.3875C18.2643 8.15503 18.2048 8.94122 17.9619 9.68221C18.1181 9.11051 18.1374 8.51167 18.0183 7.9316C17.8993 7.35153 17.6451 6.80564 17.2752 6.3358C16.9053 5.86595 16.4295 5.48463 15.8843 5.22107C15.3392 4.95751 14.7391 4.81872 14.1302 4.81534H7.94048V5.79157H14.1007C14.6239 5.79252 15.1377 5.92657 15.5909 6.1804C16.0441 6.43422 16.421 6.79894 16.684 7.23825C16.947 7.67756 17.0868 8.17612 17.0897 8.68428C17.0926 9.19243 16.9583 9.69245 16.7004 10.1345C15.81 9.81297 14.8678 9.64816 13.9179 9.64785H5.95978V10.6155H13.9179C15.5413 10.6157 17.1137 11.166 18.3641 12.1715C19.6145 13.177 20.4646 14.5747 20.7679 16.1236C20.4653 14.8443 19.7253 13.7023 18.6687 12.8839C17.612 12.0656 16.301 11.6191 14.9496 11.6175H3.97319V12.5766H14.9643C16.1579 12.5805 17.3102 13.001 18.2111 13.7615C19.112 14.522 19.7014 15.5717 19.8718 16.7191C19.7038 15.8302 19.2206 15.0266 18.5061 14.4477C17.7916 13.8688 16.891 13.5511 15.9605 13.5499H3.97908V14.5176H15.9576C16.7495 14.5176 17.5089 14.8231 18.0689 15.367C18.6288 15.9109 18.9434 16.6485 18.9434 17.4177C18.9434 18.1868 18.6288 18.9245 18.0689 19.4683C17.5089 20.0122 16.7495 20.3177 15.9576 20.3177H1.98954V21.2854H15.9605C16.891 21.2842 17.7916 20.9666 18.5061 20.3877C19.2206 19.8087 19.7038 19.0051 19.8718 18.1162C19.6991 19.2645 19.1067 20.3141 18.203 21.0731C17.2992 21.8322 16.1443 22.25 14.9496 22.2502H9.93886V23.2178H14.9496C16.2475 23.2161 17.5096 22.8043 18.5453 22.0446C19.5811 21.2849 20.3343 20.2186 20.6912 19.0066C20.3183 20.4748 19.4503 21.7798 18.2256 22.7136C17.0008 23.6474 15.4897 24.1565 13.9327 24.1597H3.98793V25.1274H13.9179C15.5373 25.1349 17.1205 24.6625 18.4562 23.7731C19.7918 22.8838 20.8163 21.6198 21.3929 20.15C21.9695 18.6802 22.0707 17.0745 21.6831 15.5473C21.2954 14.0201 20.4373 12.6442 19.2234 11.6032L19.2086 11.6089Z" fill="#F3F3F3"/>
<line x1="112.5" y1="6.56372" x2="112.5" y2="18.5637" stroke="white"/>
<path d="M129.92 5.56372C130.893 5.56372 131.727 5.70372 132.42 5.98372C133.127 6.26372 133.667 6.66372 134.04 7.18372C134.427 7.70372 134.62 8.33039 134.62 9.06372C134.62 9.85039 134.4 10.5237 133.96 11.0837C133.52 11.6437 132.92 12.0104 132.16 12.1837C133.093 12.3437 133.827 12.7371 134.36 13.3637C134.893 13.9904 135.16 14.7771 135.16 15.7237C135.16 16.5237 134.953 17.2104 134.54 17.7837C134.127 18.3571 133.54 18.7971 132.78 19.1037C132.02 19.4104 131.113 19.5637 130.06 19.5637H123.84V5.56372H129.92ZM129.8 11.3837C130.547 11.3837 131.133 11.2171 131.56 10.8837C131.987 10.5371 132.2 10.0571 132.2 9.44372C132.2 8.84372 131.987 8.38372 131.56 8.06372C131.133 7.73039 130.547 7.57039 129.8 7.58372H126.2V11.3837H129.8ZM129.8 17.5437C130.72 17.5571 131.44 17.3837 131.96 17.0237C132.48 16.6504 132.74 16.1237 132.74 15.4437C132.74 14.8037 132.48 14.3037 131.96 13.9437C131.44 13.5704 130.72 13.3904 129.8 13.4037H126.2V17.5437H129.8ZM145.181 13.4837C145.154 12.8837 145.014 12.3771 144.761 11.9637C144.521 11.5371 144.181 11.2104 143.741 10.9837C143.301 10.7437 142.794 10.6237 142.221 10.6237C141.581 10.6237 141.021 10.7704 140.541 11.0637C140.074 11.3571 139.708 11.7704 139.441 12.3037C139.174 12.8237 139.041 13.4371 139.041 14.1437C139.041 14.9037 139.181 15.5637 139.461 16.1237C139.754 16.6837 140.154 17.1171 140.661 17.4237C141.181 17.7304 141.774 17.8837 142.441 17.8837C143.628 17.8837 144.628 17.4637 145.441 16.6237L146.661 17.8437C146.141 18.4171 145.508 18.8637 144.761 19.1837C144.014 19.4904 143.181 19.6437 142.261 19.6437C141.168 19.6437 140.214 19.4171 139.401 18.9637C138.588 18.5104 137.954 17.8837 137.501 17.0837C137.048 16.2704 136.821 15.3304 136.821 14.2637C136.821 13.1971 137.048 12.2637 137.501 11.4637C137.954 10.6504 138.588 10.0171 139.401 9.56372C140.214 9.11039 141.148 8.87705 142.201 8.86372C143.454 8.86372 144.461 9.12372 145.221 9.64372C145.981 10.1504 146.521 10.8704 146.841 11.8037C147.161 12.7371 147.274 13.8437 147.181 15.1237H138.681V13.4837H145.181ZM153.059 14.8237C152.312 14.8237 151.759 14.9371 151.399 15.1637C151.039 15.3904 150.859 15.7637 150.859 16.2837C150.859 16.7771 151.039 17.1704 151.399 17.4637C151.772 17.7571 152.279 17.9037 152.919 17.9037C153.492 17.9037 154.005 17.8037 154.459 17.6037C154.912 17.4037 155.272 17.1371 155.539 16.8037C155.805 16.4571 155.945 16.0704 155.959 15.6437L156.399 17.5837C156.065 18.2771 155.559 18.7971 154.879 19.1437C154.199 19.4904 153.385 19.6637 152.439 19.6637C151.679 19.6637 151.019 19.5171 150.459 19.2237C149.899 18.9304 149.465 18.5371 149.159 18.0437C148.852 17.5371 148.699 16.9771 148.699 16.3637C148.699 15.4037 149.045 14.6371 149.739 14.0637C150.445 13.4904 151.439 13.1971 152.719 13.1837H156.239V14.8237H153.059ZM155.939 12.8237C155.939 12.1304 155.725 11.5904 155.299 11.2037C154.872 10.8171 154.239 10.6237 153.399 10.6237C152.892 10.6237 152.372 10.7171 151.839 10.9037C151.319 11.0904 150.792 11.3637 150.259 11.7237L149.319 10.2437C149.812 9.93705 150.279 9.68372 150.719 9.48372C151.159 9.28372 151.625 9.13039 152.119 9.02372C152.625 8.91705 153.219 8.86372 153.899 8.86372C155.272 8.86372 156.325 9.19705 157.059 9.86372C157.805 10.5171 158.185 11.4237 158.199 12.5837L158.219 19.5637H155.959L155.939 12.8237ZM168.798 11.9837C168.424 11.5971 167.984 11.2971 167.478 11.0837C166.971 10.8704 166.398 10.7637 165.758 10.7637C165.144 10.7637 164.598 10.9104 164.118 11.2037C163.638 11.4971 163.264 11.9104 162.998 12.4437C162.731 12.9637 162.598 13.5704 162.598 14.2637C162.598 14.9571 162.731 15.5704 162.998 16.1037C163.264 16.6237 163.638 17.0371 164.118 17.3437C164.598 17.6371 165.144 17.7837 165.758 17.7837C166.424 17.7837 167.024 17.6771 167.558 17.4637C168.091 17.2371 168.538 16.9104 168.898 16.4837L170.178 17.7437C169.698 18.3437 169.071 18.8104 168.298 19.1437C167.538 19.4771 166.658 19.6437 165.658 19.6437C164.604 19.6437 163.671 19.4171 162.858 18.9637C162.058 18.5104 161.431 17.8837 160.978 17.0837C160.524 16.2704 160.298 15.3304 160.298 14.2637C160.298 13.1971 160.524 12.2637 160.978 11.4637C161.431 10.6504 162.058 10.0171 162.858 9.56372C163.671 9.09705 164.604 8.86372 165.658 8.86372C166.618 8.86372 167.464 9.01039 168.198 9.30372C168.944 9.58372 169.564 9.98372 170.058 10.5037L168.798 11.9837ZM176.717 8.86372C177.81 8.86372 178.77 9.09039 179.597 9.54372C180.437 9.99705 181.09 10.6304 181.557 11.4437C182.024 12.2437 182.257 13.1771 182.257 14.2437C182.257 15.3104 182.024 16.2504 181.557 17.0637C181.09 17.8771 180.437 18.5104 179.597 18.9637C178.77 19.4171 177.81 19.6437 176.717 19.6437C175.624 19.6437 174.657 19.4171 173.817 18.9637C172.977 18.5104 172.324 17.8771 171.857 17.0637C171.39 16.2504 171.157 15.3104 171.157 14.2437C171.157 13.1771 171.39 12.2437 171.857 11.4437C172.324 10.6304 172.977 9.99705 173.817 9.54372C174.657 9.09039 175.624 8.86372 176.717 8.86372ZM176.717 10.7237C176.077 10.7237 175.51 10.8771 175.017 11.1837C174.524 11.4771 174.137 11.8904 173.857 12.4237C173.59 12.9571 173.457 13.5704 173.457 14.2637C173.457 14.9704 173.59 15.5904 173.857 16.1237C174.137 16.6571 174.524 17.0771 175.017 17.3837C175.51 17.6771 176.077 17.8237 176.717 17.8237C177.357 17.8237 177.917 17.6771 178.397 17.3837C178.89 17.0771 179.27 16.6571 179.537 16.1237C179.817 15.5904 179.957 14.9704 179.957 14.2637C179.957 13.5704 179.817 12.9571 179.537 12.4237C179.27 11.8904 178.89 11.4771 178.397 11.1837C177.917 10.8771 177.357 10.7237 176.717 10.7237ZM192.537 13.5637C192.537 12.7371 192.31 12.0904 191.857 11.6237C191.404 11.1437 190.777 10.9037 189.977 10.9037C189.03 10.9171 188.284 11.2504 187.737 11.9037C187.204 12.5571 186.937 13.3704 186.937 14.3437H186.297C186.297 13.0237 186.484 11.9637 186.857 11.1637C187.23 10.3637 187.757 9.78372 188.437 9.42372C189.13 9.05039 189.944 8.86372 190.877 8.86372C191.704 8.86372 192.41 9.03039 192.997 9.36372C193.597 9.69705 194.05 10.1704 194.357 10.7837C194.677 11.3837 194.837 12.1104 194.837 12.9637V19.5637H192.537V13.5637ZM184.657 8.94372H186.957V19.5637H184.657V8.94372Z" fill="#F3F3F3"/>
</svg>
